<?xml version="1.0" encoding="UTF-8" standalone="no"?>
<svg
   height="16px"
   viewBox="0 0 16 16"
   width="16px"
   version="1.1"
   id="svg2"
   sodipodi:docname="arrowheadMiddle.svg"
   inkscape:version="1.4 (86a8ad7, 2024-10-11)"
   xmlns:inkscape="http://www.inkscape.org/namespaces/inkscape"
   xmlns:sodipodi="http://sodipodi.sourceforge.net/DTD/sodipodi-0.dtd"
   xmlns="http://www.w3.org/2000/svg"
   xmlns:svg="http://www.w3.org/2000/svg">
  <defs
     id="defs2" />
  <sodipodi:namedview
     id="namedview2"
     pagecolor="#ffffff"
     bordercolor="#000000"
     borderopacity="0.25"
     inkscape:showpageshadow="2"
     inkscape:pageopacity="0.0"
     inkscape:pagecheckerboard="0"
     inkscape:deskcolor="#d1d1d1"
     inkscape:zoom="48.5625"
     inkscape:cx="8.010296"
     inkscape:cy="8.0617761"
     inkscape:window-width="1920"
     inkscape:window-height="1051"
     inkscape:window-x="-9"
     inkscape:window-y="-9"
     inkscape:window-maximized="1"
     inkscape:current-layer="svg2" />
  <path
     style="fill:none;stroke:#2b11ff;stroke-width:0;stroke-dasharray:none"
     d="M 4.2625483,5.024453 C 4.1336615,5.1236805 4.066453,5.2823243 3.953668,5.3951094 c -0.0175,0.0175 -0.044276,0.023684 -0.061776,0.041184 -0.04658,0.04658 -0.1167651,0.13057 -0.1441442,0.1853282 -0.020207,0.040415 -0.054629,0.1053094 -0.082368,0.1441442 -0.016927,0.023697 -0.042824,0.039665 -0.061776,0.061776 -0.059513,0.069432 -0.1205632,0.1675929 -0.1647362,0.2471043 -0.074702,0.1344642 -0.1195117,0.2822277 -0.2059202,0.4118404 -0.04423,0.066345 -0.1763725,0.2900853 -0.1441441,0.3706564 0.0057,0.014251 0.027456,0.013728 0.041184,0.020592"
     id="path1" />
  <path
     style="fill:none;stroke:#2b11ff;stroke-width:0;stroke-dasharray:none"
     d="M 3.7271557,7.1042471 C 4.251072,7.0294019 4.1612933,7.0365197 4.7567568,6.980695 c 0.020502,-0.00192 0.042241,0.00651 0.061776,0 0.00651,-0.00217 0,-0.013728 0,-0.020592"
     id="path2" />
  <path
     style="fill:#fff611;fill-opacity:1;stroke:#f9ed2a;stroke-width:1.43051;stroke-linecap:round;stroke-dasharray:1.43051, 2.86101;stroke-dashoffset:0;stroke-opacity:1"
     d="M 13.283408,13.628524 0.7092337,0.68369308"
     id="path7" />
  <path
     style="fill:#1be000;fill-opacity:1;stroke:#2b11ff;stroke-width:0;stroke-dasharray:none"
     d="M 9.985418,10.165332 8.749551,2.808185 7.658641,8.0456343 1.6566898,9.1274243 Z"
     id="path3" />
</svg>
